<svg version="1.1" xmlns="http://www.w3.org/2000/svg" width="13" height="14" viewBox="0 0 13 14">
<title>rocket</title>
<path fill="white" d="M11.25 3.5q0-0.312-0.219-0.531t-0.531-0.219-0.531 0.219-0.219 0.531 0.219 0.531 0.531 0.219 0.531-0.219 0.219-0.531zM13 1.25q0 1.945-0.59 3.363t-1.98 2.816q-0.633 0.625-1.523 1.375l-0.156 2.961q-0.016 0.125-0.125 0.203l-3 1.75q-0.055 0.031-0.125 0.031-0.094 0-0.18-0.070l-0.5-0.5q-0.102-0.109-0.062-0.25l0.664-2.156-2.195-2.195-2.156 0.664q-0.023 0.008-0.070 0.008-0.109 0-0.18-0.070l-0.5-0.5q-0.133-0.148-0.039-0.305l1.75-3q0.078-0.109 0.203-0.125l2.961-0.156q0.75-0.891 1.375-1.523 1.469-1.461 2.797-2.016t3.367-0.555q0.109 0 0.187 0.074t0.078 0.176z"></path>
</svg>
