<svg version="1.1" xmlns="http://www.w3.org/2000/svg" width="15" height="14" viewBox="0 0 15 14">
<title>tags</title>
<path fill="white" d="M3.5 3.5q0-0.414-0.293-0.707t-0.707-0.293-0.707 0.293-0.293 0.707 0.293 0.707 0.707 0.293 0.707-0.293 0.293-0.707zM11.836 8q0 0.414-0.289 0.703l-3.836 3.844q-0.305 0.289-0.711 0.289-0.414 0-0.703-0.289l-5.586-5.594q-0.297-0.289-0.504-0.789t-0.207-0.914v-3.25q0-0.406 0.297-0.703t0.703-0.297h3.25q0.414 0 0.914 0.207t0.797 0.504l5.586 5.578q0.289 0.305 0.289 0.711zM14.836 8q0 0.414-0.289 0.703l-3.836 3.844q-0.305 0.289-0.711 0.289-0.281 0-0.461-0.109t-0.414-0.352l3.672-3.672q0.289-0.289 0.289-0.703 0-0.406-0.289-0.711l-5.586-5.578q-0.297-0.297-0.797-0.504t-0.914-0.207h1.75q0.414 0 0.914 0.207t0.797 0.504l5.586 5.578q0.289 0.305 0.289 0.711z"></path>
</svg>
