<svg xmlns="http://www.w3.org/2000/svg" viewBox="0 0 100 100" width="36" height="36"><g><path fill="#58c064" d="m -2245.1848,1749.1743 c 18.6621,0.7025 38.3753,2.908 42.9033,4.7999 1.3662,0.5709 3.7454,2.2992 5.287,3.8408 11.7714,11.7715 44.7631,65.4127 65.8208,107.0184 9.7669,19.2971 13.8809,29.4563 13.8809,34.2775 0,5.8516 -6.3537,20.5497 -20.2056,46.7423 l -5.9212,11.1965 -11.284,3.2833 c -13.6778,3.9799 -25.7128,6.8331 -38.9001,9.2223 -9.1346,1.6549 -28.6935,4.4884 -29.063,4.2104 -0.087,-0.066 1.7054,-3.0037 3.9846,-6.5282 14.9526,-23.1216 33.9512,-58.6018 35.2737,-65.8741 0.6494,-3.5706 -0.9967,-8.4314 -7.016,-20.7188 -15.9136,-32.4846 -43.3806,-74.6227 -67.3832,-103.3752 -3.9866,-4.7756 -11.6174,-13.1573 -16.9573,-18.6261 l -9.709,-9.9433 17.0279,0.1387 c 9.3654,0.076 19.3829,0.2273 22.2612,0.3356 z" transform="matrix(.208 -.12 .12 .208 297.276 -620.105)"/><path fill="#d53b60" d="m -2346.0913,1826.3274 c -0.2802,0.4797 -3.0872,4.9541 -6.2382,9.9432 -13.0157,20.6093 -28.4602,49.4799 -31.3012,58.5123 -1.7507,5.5659 -0.9161,8.3893 7.3414,24.8372 22.8501,45.5143 52.4865,88.6834 84.3411,122.8535 l 7.314,7.8457 -16.7341,-0.4734 c -34.9095,-0.9877 -54.0366,-2.5106 -62.2811,-4.9589 -4.7809,-1.4198 -7.3835,-3.7965 -14.4298,-13.1777 -22.85,-30.4223 -66.8047,-108.9939 -71.8852,-128.4993 -1.5512,-5.9555 -0.297,-10.0172 9.5732,-31.004 2.8118,-5.9787 14.5491,-28.5693 15.4878,-29.8089 0.064,-0.084 4.9377,-1.592 10.8307,-3.3501 18.0368,-5.3811 36.4384,-9.2936 57.5504,-12.2362 11.5146,-1.6049 11.074,-1.5845 10.431,-0.4834 l 0,0 z" transform="matrix(.208 -.12 .12 .208 297.276 -620.105)"/><path fill="#f95" d="m -2153.0787,1973.7421 c 0,0.7722 -14.9481,25.4767 -22.9687,37.9601 -12.7505,19.8447 -20.5776,29.8094 -25.3126,32.225 -4.9706,2.5358 -23.8656,4.6128 -49.407,5.4308 l -15.0022,0.4805 -6.8106,-6.3045 c -11.5936,-10.7322 -27.4631,-28.7442 -40.289,-45.7287 l -6.0597,-8.0244 33.2084,-0.01 c 31.5126,-0.01 34.1352,-0.1072 51.3507,-1.9545 33.1336,-3.5553 61.8008,-8.6249 80.0696,-14.1595 0.6716,-0.2035 1.2211,-0.1661 1.2211,0.083 z" transform="matrix(.208 -.12 .12 .208 297.276 -620.105)"/><path fill="#58c095" d="m -2293.6801,1757.6556 c 10.2758,10.1241 19.9638,20.5623 27.631,29.7709 6.684,8.0276 16.9068,21.3079 16.5797,21.5387 -0.138,0.098 -5.1179,-0.098 -11.0665,-0.4349 -20.2799,-1.1476 -60.8676,0.1666 -70.4751,2.2821 -1.727,0.3802 -7.6929,1.1765 -13.2577,1.7693 -21.4345,2.2838 -43.5168,6.2294 -61.7531,11.0339 -4.989,1.3144 -9.1642,2.3037 -9.2781,2.1983 -0.3559,-0.3291 15.0593,-25.9112 23.7619,-39.4341 14.1344,-21.9631 21.8068,-31.3195 26.9017,-32.8068 7.0486,-2.0576 39.9614,-4.892 56.4771,-4.8637 l 5.408,0.01 9.0711,8.937 z" transform="matrix(.208 -.12 .12 .208 297.276 -620.105)"/><path fill-opacity=".096" d="m -2221.5419,1973.7121 c 1.2487,-0.058 4.0158,-0.448 9.773,-1.2505 8.7234,-1.2158 33.046,-5.7143 33.046,-5.7143 0,0 1.2988,-2.2368 2.3363,-5.2038 8.2292,-23.5345 12.913,-48.0337 15.754,-57.0661 1.7507,-5.5659 0.9195,-8.3964 -7.338,-24.8442 -29.5228,-51.6948 -76.494,-91.7053 -115.5574,-130.5477 l -0.1081,-0.1559 7.3053,7.8646 c 31.8545,34.1701 61.4885,77.3247 84.3386,122.839 8.2576,16.4478 9.0888,19.2783 7.3381,24.8442 -2.841,9.0324 -18.0494,38.0441 -31.2938,58.5073 -3.2506,5.0223 -5.7061,8.9178 -6.5513,10.3947 -0.3167,0.5533 -0.2915,0.3906 0.9573,0.3327 z" transform="matrix(.208 -.12 .12 .208 297.276 -620.105)"/><path fill-opacity=".096" d="m -2415.285,1825.8132 c 0,0 4.2906,-0.8903 9.2796,-2.2047 18.2362,-4.8046 40.2976,-8.7398 61.732,-11.0236 5.5648,-0.5928 11.5343,-1.3967 13.2613,-1.7769 9.6076,-2.1154 50.2051,-3.4182 70.4852,-2.2705 5.9485,0.3366 10.9184,0.5252 11.0565,0.4277 0.3269,-0.2308 -9.9008,-13.526 -16.5848,-21.5535 -2.9016,-3.485 -6.1071,-7.1385 -9.5099,-10.892 -30.9226,3.5601 -86.906,15.0193 -139.7199,49.2935 z" transform="matrix(.208 -.12 .12 .208 297.276 -620.105)"/><path fill-opacity=".096" d="m -2152.4364,1972.8288 c 0,0 -4.2905,0.8904 -9.2796,2.2048 -18.2362,4.8045 -40.2977,8.7398 -61.7321,11.0236 -5.5647,0.5928 -11.5342,1.3966 -13.2611,1.7769 -9.6076,2.1154 -50.2053,3.4182 -70.4852,2.2705 -5.9486,-0.3366 -10.9185,-0.5252 -11.0565,-0.4278 -0.3271,0.2308 9.9007,13.526 16.5847,21.5536 2.9017,3.485 6.107,7.1384 9.5099,10.892 30.9226,-3.5601 86.906,-15.0194 139.7199,-49.2936 z" transform="matrix(.208 -.12 .12 .208 297.276 -620.105)"/><path fill-opacity=".096" d="m -2346.6362,1825.6217 c -1.2487,0.058 -4.0158,0.448 -9.7731,1.2505 -8.7233,1.2158 -33.0458,5.7143 -33.0458,5.7143 0,0 -1.2989,2.2368 -2.3364,5.2039 -8.2292,23.5344 -12.9131,48.0337 -15.7541,57.0661 -1.7507,5.5658 -0.9194,8.3963 7.3381,24.8442 29.5228,51.6947 76.4941,91.7052 115.5574,130.5477 l 0.108,0.1558 -7.3052,-7.8646 c -31.8546,-34.1701 -61.4885,-77.3246 -84.3387,-122.8389 -8.2575,-16.4479 -9.0887,-19.2784 -7.338,-24.8442 2.841,-9.0324 18.0493,-38.0442 31.2938,-58.5073 3.2506,-5.0224 5.7061,-8.9178 6.5513,-10.3948 0.3166,-0.5533 0.2916,-0.3905 -0.9573,-0.3327 z" transform="matrix(.208 -.12 .12 .208 297.276 -620.105)"/></g></svg>