<svg xmlns="http://www.w3.org/2000/svg" viewBox="0 0 100 100"><g fill="white"><path d="M37.544 5.208C42.5 2.59 47.956.204 49.417.018c.44-.058 1.32.034 1.95.204 4.827 1.293 21.454 10.285 33.172 17.94 5.434 3.55 8.028 5.574 8.75 6.827.88 1.52 1.434 6.294 1.764 15.182l.14 3.8-2.44 2.546c-2.958 3.087-5.658 5.635-8.727 8.235-2.126 1.8-6.785 5.473-6.923 5.456-.032-.005-.007-1.038.056-2.296.417-8.254.03-20.328-.717-22.417-.367-1.026-1.524-2.042-4.933-4.333-9.012-6.056-22.476-12.887-33.03-16.76-1.753-.642-4.995-1.675-7.204-2.295l-4.016-1.13 4.447-2.518c2.446-1.386 5.073-2.85 5.837-3.254zM22.894 40.407c0 .167-.06 1.75-.13 3.52-.29 7.31.028 17.134.645 19.908.38 1.71 1.02 2.32 5.635 5.355 12.77 8.402 26.953 15.175 40.36 19.277l3.08.942-4.42 2.387C58.84 96.78 53.64 99.254 51.13 99.855c-1.455.348-2.49.12-5.728-1.26C34.896 94.115 11.68 80.29 7.432 75.98c-1.298-1.314-1.582-2.558-2.166-9.495-.166-1.976-.505-9.61-.447-10.073.003-.03 1.043-1.155 2.31-2.496 3.882-4.106 8.078-7.885 13.125-11.818 2.752-2.145 2.64-2.074 2.64-1.69z"/><path d="M95.19 49.76c.115.2-.063 8.865-.274 13.314-.336 7.072-.875 10.837-1.744 12.175-.91 1.405-5.51 4.78-12.028 8.826l-3.827 2.376-2.717-.616c-4.624-1.05-11.452-3.35-17.335-5.84l-2.78-1.177 8.63-4.987c8.19-4.732 8.858-5.15 13.056-8.215C84.25 59.72 90.94 54.1 94.86 49.92c.143-.153.292-.226.33-.16zM26.21 14.69c4.192 1.09 8.277 2.35 11.652 3.592 2.942 1.084 7.592 3.002 7.542 3.11-.02.047-1.345.744-2.942 1.55-5.444 2.744-15.797 9.177-17.977 11.17-.392.357-1.823 1.46-3.18 2.448-5.23 3.81-10.378 8.15-14.397 12.136-1.1 1.09-2.036 1.975-2.082 1.964-.142-.032.026-8.995.26-13.817.377-7.83.967-11.413 2.068-12.565 1.524-1.592 9.654-7.27 13.95-9.74l1.408-.81 3.7.963z"/></g></svg>